<svg id="Layer_1" data-name="Layer 1" xmlns="http://www.w3.org/2000/svg" viewBox="0 0 621.85164 564.61881"><defs><style>.cls-1,.cls-8{fill:#dee8f7;}.cls-2{fill:#ef7841;}.cls-3{fill:#3895da;}.cls-4{fill:#50b3f2;}.cls-5{opacity:0.75;}.cls-6,.cls-7{font-size:132.79126px;font-family:LilitaOne, Lilita One;}.cls-6{fill:#ec4205;}.cls-7{fill:#fff;}.cls-8{stroke:#00aeef;stroke-miterlimit:10;stroke-width:10px;}</style></defs><circle class="cls-1" cx="347.46321" cy="290.23038" r="274.38843"/><path class="cls-2" d="M352.83737,268.23075c38.54506,20.95861,57.99785,52.954,56.20636,97.23181-7.15219,42.93821-32.3331,70.18466-73.03515,83.92347-40.92737,7.52261-74.131-5.71926-100.48277-37.37751-23.438-39.64961-25.34343-79.38551,4.54234-115.98109C269.94407,259.444,309.22389,253.10641,352.83737,268.23075Z" transform="translate(-146.76574 -209.71427)"/><path class="cls-3" d="M671.9821,382.12018c6.33739-22.3158,3.2844-53.273,37.2362-50.17719.986.08991,9.107.3397,17.74287.58951,12.553.36312,26.66077,2.55568,25.40561,19.47155-.64,8.62528-6.62623,10.91277-14.27212,10.481-10.31139-.8342-20.62277-1.66834-31.17758-2.52215-2.59172,9.331-4.86782,17.52563-7.1459,25.71925Q685.87469,383.90016,671.9821,382.12018Z" transform="translate(-146.76574 -209.71427)"/><path class="cls-2" d="M219.30879,275.81845q-25.471-24.88068-50.942-49.76138l-2.49969,2.49868q24.68743,25.66419,49.37489,51.32839Q217.27538,277.85131,219.30879,275.81845Z" transform="translate(-146.76574 -209.71427)"/><path class="cls-2" d="M201.21541,311.59279l-54.44967-13.305,1.55953-6.43381q27.30318,6.52437,54.60635,13.04872Z" transform="translate(-146.76574 -209.71427)"/><path class="cls-2" d="M250.97168,256.24572l-16.94316-44.18,6.32805-2.3514,16.77668,44.2317Z" transform="translate(-146.76574 -209.71427)"/><path class="cls-4" d="M671.9821,382.12018q13.8936,1.78051,27.78908,3.562-24.0939,100.53855-48.18933,201.07467c-5.85536,16.43391-18.10507,22.30617-34.69888,21.00027-81.01867-5.4012-162.05459-10.564-243.03955-16.43054-14.03676-1.01688-23.96-10.48743-25.66147-24.3753-4.29279-35.03952-7.142-70.25591-10.57023-105.40188,50.94342-14.199,84.573-52.31328,83.81746-94.99611q121.30925,7.97478,242.62094,15.91164A70.67739,70.67739,0,0,0,671.9821,382.12018ZM472.12815,530.90385q-5.00034-49.67007-9.976-99.34258c-.935-9.46995-4.44572-16.53259-15.39085-15.44178-10.97194,1.09355-13.156,8.89089-12.10758,18.23571,3.64994,32.5327,7.76928,65.01838,10.91208,97.5989.957,9.92159,3.756,16.40413,14.63533,15.63512C470.45233,546.86453,472.59073,539.71893,472.12815,530.90385ZM583.71226,442.0268c1.01693-10.80751-2.30949-16.19791-9.61751-17.6082-8.32014-1.60561-14.24725,2.28412-16.32708,10.74634-8.0832,32.88826-16.261,65.75633-23.90024,98.74847-1.88694,8.1493-1.3652,16.62039,8.93268,19.74435,7.85763,2.38377,13.55266-2.21084,15.223-8.56389C567.29906,509.815,575.75031,474.31919,583.71226,442.0268Z" transform="translate(-146.76574 -209.71427)"/><path class="cls-3" d="M431.264,652.95441q2.55018.38068,5.09732.76052l.54322.49434.61406-.39644q6.59446.44059,13.1879.88157,3.057.13645,6.116.27222,59.45454,4.00128,118.90931,8.00263-2.347,11.343-4.69475,22.68621-65.07259-4.2907-130.14436-8.58032c-3.31129-.65176-6.62346-1.30456-8.258-1.62672C432.151,667.51,431.70749,660.23221,431.264,652.95441Z" transform="translate(-146.76574 -209.71427)"/><path class="cls-3" d="M421.42918,366.55332c.75553,42.68278-32.874,80.797-83.81746,94.99606q-.80278-6.0836-1.605-12.16568c40.7039-13.73648,65.88481-40.98293,73.037-83.92111Q415.23657,366.0063,421.42918,366.55332Z" transform="translate(-146.76574 -209.71427)"/><path class="cls-3" d="M636.18712,653.2085q-12.33372-8.82222-24.66759-17.64339,2.67768-13.90341,5.35953-27.80845c16.59772,1.30634,28.84743-4.56592,34.70279-20.99983q-7.23513,30.88-14.46437,61.75692-.42111.93141-.8443,1.86752Z" transform="translate(-146.76574 -209.71427)"/><path class="cls-4" d="M456.82252,654.96657q-3.05855-.13594-6.116-.27217Q453.76555,654.83011,456.82252,654.96657Z" transform="translate(-146.76574 -209.71427)"/><path class="cls-4" d="M636.27318,650.38127q.42267-.935.8443-1.86752Z" transform="translate(-146.76574 -209.71427)"/><path class="cls-4" d="M437.51861,653.81283l-.61406.39644-.54322-.49434A.95281.95281,0,0,1,437.51861,653.81283Z" transform="translate(-146.76574 -209.71427)"/><path class="cls-3" d="M472.12815,530.90385c.46258,8.81508-1.67582,15.96068-11.92706,16.68537-10.8793.769-13.67828-5.71353-14.63533-15.63512-3.1428-32.58052-7.26214-65.0662-10.91208-97.5989-1.04842-9.34482,1.13564-17.14216,12.10758-18.23571,10.94513-1.09081,14.4558,5.97183,15.39085,15.44178Q467.05716,481.24075,472.12815,530.90385Z" transform="translate(-146.76574 -209.71427)"/><path class="cls-3" d="M583.71226,442.0268c-7.962,32.29239-16.4132,67.78816-25.68912,103.06707-1.67037,6.353-7.3654,10.94766-15.223,8.56389-10.29788-3.124-10.81962-11.59505-8.93268-19.74435,7.63922-32.99214,15.817-65.86021,23.90024-98.74847,2.07983-8.46222,8.00694-12.35195,16.32708-10.74634C581.40277,425.82889,584.72919,431.21929,583.71226,442.0268Z" transform="translate(-146.76574 -209.71427)"/><g class="cls-5"><text class="cls-6" transform="translate(122.07574 193.34064)">0</text></g><text class="cls-7" transform="translate(119.07574 190.34064)">0</text><circle class="cls-8" cx="457.04851" cy="461.33544" r="29.32675"/><circle class="cls-8" cx="255.17153" cy="449.24044" r="29.32675"/></svg>